<svg xmlns="http://www.w3.org/2000/svg" width="38" height="38" viewBox="0 0 38 38" fill="none"><script xmlns=""/>
<path d="M16.8455 1.83984L17.6928 9.72871C17.6928 10.1316 17.3654 10.4591 16.9629 10.4591C16.5583 10.4591 16.2321 10.132 16.2321 9.72871L15.3848 1.83984H14.7955V9.72871C14.7955 10.1316 14.4688 10.4591 14.0647 10.4591C13.6618 10.4591 13.3347 10.132 13.3347 9.72871V1.83984H12.7463L11.8989 9.72871C11.8989 10.1316 11.5723 10.4591 11.1681 10.4591C10.7652 10.4591 10.4382 10.132 10.4382 9.72871L11.2855 1.83984H10.4077L9.13672 11.8449C9.13672 14.1428 10.7114 16.0674 12.8386 16.6135L11.7951 35.1395C11.7951 35.9249 13.4262 36.5617 14.0647 36.5617C14.7044 36.5617 16.335 35.9249 16.335 35.1395L15.2907 16.6135C17.4187 16.0674 18.9926 14.1428 18.9926 11.8449L17.7216 1.83984H16.8455Z" fill="white"/>
<path d="M26.9053 1.71094C25.914 1.71094 25.0188 2.11002 24.2443 2.89759C20.4421 6.76471 20.5514 19.8878 20.5764 21.371L20.5946 22.4458H25.8123V35.4681C25.8123 36.0714 26.3012 36.5607 26.9053 36.5607C27.5095 36.5607 27.9983 36.0714 27.9983 35.4681V2.80397C27.9983 2.19983 27.509 1.71094 26.9053 1.71094Z" fill="white"/>
<script xmlns=""/></svg>