<svg xmlns="http://www.w3.org/2000/svg" width="38" height="38" viewBox="0 0 38 38" fill="none"><script xmlns=""/>
<path d="M33.1818 13.9653C33.1818 8.47025 28.7111 4 23.2165 4C20.446 4 17.9376 5.13852 16.1296 6.97004C16.0625 6.85584 15.9914 6.74165 15.911 6.62942L15.6351 6.24321C14.9573 5.29486 14.0746 4.7729 13.1498 4.7729C12.0539 4.7729 11.0992 5.48992 10.5306 6.74018L10.3346 7.17196C9.8293 8.28401 9.84008 9.3446 10.3645 10.1596C10.8654 10.9379 11.7549 11.3668 12.8684 11.3668C13.0125 11.3668 13.162 11.3594 13.3169 11.3447L13.6203 11.3153C13.3865 12.1607 13.2512 13.0473 13.2512 13.9663C13.2512 14.3412 13.2762 14.7103 13.3164 15.0744C8.2492 15.5376 4.26562 19.8064 4.26562 24.9927C4.26562 30.4877 8.73637 34.958 14.2309 34.958C19.7255 34.958 24.1963 30.4873 24.1963 24.9927C24.1963 24.6178 24.1713 24.2487 24.1311 23.8846C29.1983 23.4204 33.1818 19.1516 33.1818 13.9653ZM14.2309 32.9976C9.81705 32.9976 6.22605 29.4066 6.22605 24.9927C6.22605 20.7474 9.55092 17.2725 13.732 17.0128C14.9181 20.6945 18.1885 23.4474 22.1486 23.8713C22.2005 24.2389 22.2363 24.6109 22.2363 24.9922C22.2363 29.4066 18.6448 32.9976 14.2309 32.9976ZM15.8811 17.1603C18.436 17.698 20.5435 19.4579 21.5663 21.7972C19.0114 21.26 16.904 19.5001 15.8811 17.1603ZM23.7155 21.9452C22.5294 18.2635 19.2589 15.5106 15.2989 15.0867C15.2469 14.7191 15.2111 14.3471 15.2111 13.9658C15.2111 9.55191 18.8022 5.96091 23.216 5.96091C27.6299 5.96091 31.2209 9.55191 31.2209 13.9658C31.2214 18.2106 27.8965 21.6855 23.7155 21.9452Z" fill="white"/>
<script xmlns=""/></svg>